<svg viewBox="0 0 134.5 29.5" style="enable-background:new 0 0 134.5 29.5" xml:space="preserve">
  <path d="M125.9 12.2c-2.8 0-4.2 1.2-5.5 2.2-1.1 1-2.1 1.8-4.2 1.8s-3-.8-4.2-1.8c-1.3-1-2.7-2.2-5.5-2.2s-4.2 1.2-5.5 2.2c-1.1 1-2.1 1.8-4.2 1.8s-3-.8-4.2-1.8c-1.3-1-2.7-2.2-5.5-2.2s-4.2 1.2-5.5 2.2c-1.1 1-2.1 1.8-4.2 1.8s-3-.8-4.2-1.8c-1.3-1-2.7-2.2-5.5-2.2-.1 0-.3 0-.4.1-.1 0-.2-.1-.4-.1-2.8 0-4.2 1.2-5.5 2.2-1.1 1-2.1 1.8-4.2 1.8s-3-.8-4.2-1.8c-1.3-1-2.7-2.2-5.5-2.2s-4.2 1.2-5.5 2.2c-1.1 1-2.1 1.8-4.2 1.8s-3-.8-4.2-1.8c-1.3-1-2.7-2.2-5.5-2.2s-4.2 1.2-5.5 2.2c-1.1 1-2.1 1.8-4.2 1.8s-3-.8-4.2-1.8c-1.3-1-2.7-2.2-5.5-2.2-.6 0-1 .4-1 1s.4 1 1 1c2.1 0 3 .8 4.2 1.8 1.3 1 2.7 2.2 5.5 2.2s4.2-1.2 5.5-2.2c1.1-1 2.1-1.8 4.2-1.8s3 .8 4.2 1.8c1.3 1 2.7 2.2 5.5 2.2S42 17 43.3 16c1.1-1 2.1-1.8 4.2-1.8s3 .8 4.2 1.8c1.3 1 2.7 2.2 5.5 2.2s4.2-1.2 5.5-2.2c1.1-1 2.1-1.8 4.2-1.8.1 0 .3 0 .4-.1.1 0 .2.1.4.1 2.1 0 3 .8 4.2 1.8 1.3 1 2.7 2.2 5.5 2.2s4.2-1.2 5.5-2.2c1.1-1 2.1-1.8 4.2-1.8s3 .8 4.2 1.8c1.3 1 2.7 2.2 5.5 2.2s4.2-1.2 5.5-2.2c1.1-1 2.1-1.8 4.2-1.8s3 .8 4.2 1.8c1.3 1 2.7 2.2 5.5 2.2s4.2-1.2 5.5-2.2c1.1-1 2.1-1.8 4.2-1.8.6 0 1-.4 1-1s-.5-1-1-1z" fill="rcurrentColor"/>
</svg>
