<?xml version="1.0" encoding="utf-8"?>
<!-- Generator: Adobe Illustrator 21.0.2, SVG Export Plug-In . SVG Version: 6.00 Build 0)  -->
<svg version="1.1" id="Layer_1" xmlns="http://www.w3.org/2000/svg" xmlns:xlink="http://www.w3.org/1999/xlink" x="0px" y="0px"
	 viewBox="0 0 134.5 29.5" style="enable-background:new 0 0 134.5 29.5;" xml:space="preserve">
<path d="M125.9,12.2c-2.8,0-4.2,1.2-5.5,2.2c-1.1,1-2.1,1.8-4.2,1.8c-2.1,0-3-0.8-4.2-1.8c-1.3-1-2.7-2.2-5.5-2.2
	c-2.8,0-4.2,1.2-5.5,2.2c-1.1,1-2.1,1.8-4.2,1.8c-2.1,0-3-0.8-4.2-1.8c-1.3-1-2.7-2.2-5.5-2.2c-2.8,0-4.2,1.2-5.5,2.2
	c-1.1,1-2.1,1.8-4.2,1.8c-2.1,0-3-0.8-4.2-1.8c-1.3-1-2.7-2.2-5.5-2.2c-0.1,0-0.3,0-0.4,0.1c-0.1,0-0.2-0.1-0.4-0.1
	c-2.8,0-4.2,1.2-5.5,2.2c-1.1,1-2.1,1.8-4.2,1.8c-2.1,0-3-0.8-4.2-1.8c-1.3-1-2.7-2.2-5.5-2.2c-2.8,0-4.2,1.2-5.5,2.2
	c-1.1,1-2.1,1.8-4.2,1.8c-2.1,0-3-0.8-4.2-1.8c-1.3-1-2.7-2.2-5.5-2.2c-2.8,0-4.2,1.2-5.5,2.2c-1.1,1-2.1,1.8-4.2,1.8
	c-2.1,0-3-0.8-4.2-1.8c-1.3-1-2.7-2.2-5.5-2.2c-0.6,0-1,0.4-1,1s0.4,1,1,1c2.1,0,3,0.8,4.2,1.8c1.3,1,2.7,2.2,5.5,2.2
	s4.2-1.2,5.5-2.2c1.1-1,2.1-1.8,4.2-1.8c2.1,0,3,0.8,4.2,1.8c1.3,1,2.7,2.2,5.5,2.2c2.8,0,4.2-1.2,5.5-2.2c1.1-1,2.1-1.8,4.2-1.8
	c2.1,0,3,0.8,4.2,1.8c1.3,1,2.7,2.2,5.5,2.2c2.8,0,4.2-1.2,5.5-2.2c1.1-1,2.1-1.8,4.2-1.8c0.1,0,0.3,0,0.4-0.1
	c0.1,0,0.2,0.1,0.4,0.1c2.1,0,3,0.8,4.2,1.8c1.3,1,2.7,2.2,5.5,2.2s4.2-1.2,5.5-2.2c1.1-1,2.1-1.8,4.2-1.8c2.1,0,3,0.8,4.2,1.8
	c1.3,1,2.7,2.2,5.5,2.2c2.8,0,4.2-1.2,5.5-2.2c1.1-1,2.1-1.8,4.2-1.8c2.1,0,3,0.8,4.2,1.8c1.3,1,2.7,2.2,5.5,2.2
	c2.8,0,4.2-1.2,5.5-2.2c1.1-1,2.1-1.8,4.2-1.8c0.6,0,1-0.4,1-1S126.4,12.2,125.9,12.2z"/>
</svg>
