<?xml version="1.0" encoding="UTF-8"?> <!-- Creator: CorelDRAW X7 --> <svg xmlns="http://www.w3.org/2000/svg" xmlns:xlink="http://www.w3.org/1999/xlink" xml:space="preserve" width="3164px" height="228px" style="shape-rendering:geometricPrecision; text-rendering:geometricPrecision; image-rendering:optimizeQuality; fill-rule:evenodd; clip-rule:evenodd" viewBox="0 0 2314125 166848"> <defs> <style type="text/css"> <![CDATA[ .fil0 {fill:#2B8231;fill-rule:nonzero} ]]> </style> </defs> <g id="Layer_x0020_1"> <metadata id="CorelCorpID_0Corel-Layer"></metadata> <g id="_1539777116880"> <path class="fil0" d="M476557 80169c-64444,54094 -147556,86679 -238277,86679 -90724,0 -173834,-32582 -238280,-86679l9150 0c62642,50576 142347,80861 229130,80861 86780,0 166486,-30287 229128,-80861l9150 0 -1 0z"></path> <path class="fil0" d="M935666 86679c-64444,-54094 -147559,-86679 -238280,-86679 -90721,0 -173835,32583 -238280,86679l9150 0c62642,-50575 142347,-80858 229130,-80858 86780,0 166486,30284 229130,80858l9150 0z"></path> <path class="fil0" d="M1396477 80169c-64447,54094 -147556,86679 -238279,86679 -90721,0 -173835,-32582 -238278,-86679l9148 0c62642,50576 142347,80861 229130,80861 86779,0 166485,-30287 229129,-80861l9150 0z"></path> <path class="fil0" d="M1855584 86679c-64442,-54094 -147557,-86679 -238278,-86679 -90723,0 -173834,32583 -238280,86679l9150 0c62642,-50575 142347,-80858 229130,-80858 86781,0 166487,30284 229129,80858l9149 0 0 0z"></path> <path class="fil0" d="M2314125 80169c-64443,54094 -147556,86679 -238275,86679 -90727,0 -173835,-32582 -238283,-86679l9150 0c62639,50576 142347,80861 229133,80861 86777,0 166486,-30287 229126,-80861l9149 0z"></path> </g> </g> </svg> 